<mxfile host="app.diagrams.net" agent="Mozilla/5.0 (X11; Linux x86_64) AppleWebKit/537.36 (KHTML, like Gecko) Chrome/130.0.0.0 Safari/537.36" version="24.8.4">
  <diagram id="C5RBs43oDa-KdzZeNtuy" name="Page-1">
    <mxGraphModel dx="1509" dy="794" grid="1" gridSize="10" guides="1" tooltips="1" connect="1" arrows="1" fold="1" page="1" pageScale="1" pageWidth="827" pageHeight="1169" background="#ffffff" math="0" shadow="0">
      <root>
        <mxCell id="WIyWlLk6GJQsqaUBKTNV-0" />
        <mxCell id="WIyWlLk6GJQsqaUBKTNV-1" parent="WIyWlLk6GJQsqaUBKTNV-0" />
        <mxCell id="k_0NC8NsxbPzt0nOYT8m-11" style="edgeStyle=orthogonalEdgeStyle;rounded=0;orthogonalLoop=1;jettySize=auto;html=1;exitX=0.5;exitY=1;exitDx=0;exitDy=0;entryX=0.5;entryY=0;entryDx=0;entryDy=0;" edge="1" parent="WIyWlLk6GJQsqaUBKTNV-1" source="k_0NC8NsxbPzt0nOYT8m-2" target="k_0NC8NsxbPzt0nOYT8m-3">
          <mxGeometry relative="1" as="geometry" />
        </mxCell>
        <mxCell id="k_0NC8NsxbPzt0nOYT8m-2" value="Người dùng bấm nút" style="rounded=1;whiteSpace=wrap;html=1;" vertex="1" parent="WIyWlLk6GJQsqaUBKTNV-1">
          <mxGeometry x="320" y="150" width="120" height="60" as="geometry" />
        </mxCell>
        <mxCell id="k_0NC8NsxbPzt0nOYT8m-12" style="edgeStyle=orthogonalEdgeStyle;rounded=0;orthogonalLoop=1;jettySize=auto;html=1;entryX=1;entryY=0.5;entryDx=0;entryDy=0;" edge="1" parent="WIyWlLk6GJQsqaUBKTNV-1" source="k_0NC8NsxbPzt0nOYT8m-3" target="k_0NC8NsxbPzt0nOYT8m-6">
          <mxGeometry relative="1" as="geometry" />
        </mxCell>
        <mxCell id="k_0NC8NsxbPzt0nOYT8m-18" style="edgeStyle=orthogonalEdgeStyle;rounded=0;orthogonalLoop=1;jettySize=auto;html=1;exitX=1;exitY=0.5;exitDx=0;exitDy=0;entryX=0.5;entryY=0;entryDx=0;entryDy=0;" edge="1" parent="WIyWlLk6GJQsqaUBKTNV-1" source="k_0NC8NsxbPzt0nOYT8m-3" target="k_0NC8NsxbPzt0nOYT8m-10">
          <mxGeometry relative="1" as="geometry">
            <mxPoint x="520" y="300.33333333333337" as="targetPoint" />
          </mxGeometry>
        </mxCell>
        <mxCell id="k_0NC8NsxbPzt0nOYT8m-3" value="NÚT 1" style="rhombus;whiteSpace=wrap;html=1;" vertex="1" parent="WIyWlLk6GJQsqaUBKTNV-1">
          <mxGeometry x="340" y="260" width="80" height="80" as="geometry" />
        </mxCell>
        <mxCell id="k_0NC8NsxbPzt0nOYT8m-13" style="edgeStyle=orthogonalEdgeStyle;rounded=0;orthogonalLoop=1;jettySize=auto;html=1;exitX=0.5;exitY=1;exitDx=0;exitDy=0;entryX=0.5;entryY=0;entryDx=0;entryDy=0;" edge="1" parent="WIyWlLk6GJQsqaUBKTNV-1" source="k_0NC8NsxbPzt0nOYT8m-6" target="k_0NC8NsxbPzt0nOYT8m-7">
          <mxGeometry relative="1" as="geometry" />
        </mxCell>
        <mxCell id="k_0NC8NsxbPzt0nOYT8m-43" style="edgeStyle=orthogonalEdgeStyle;rounded=0;orthogonalLoop=1;jettySize=auto;html=1;entryX=0.5;entryY=1;entryDx=0;entryDy=0;" edge="1" parent="WIyWlLk6GJQsqaUBKTNV-1" source="k_0NC8NsxbPzt0nOYT8m-6" target="k_0NC8NsxbPzt0nOYT8m-42">
          <mxGeometry relative="1" as="geometry" />
        </mxCell>
        <mxCell id="k_0NC8NsxbPzt0nOYT8m-6" value="NÚT 2" style="rhombus;whiteSpace=wrap;html=1;" vertex="1" parent="WIyWlLk6GJQsqaUBKTNV-1">
          <mxGeometry x="99.95" y="260" width="80" height="80" as="geometry" />
        </mxCell>
        <mxCell id="k_0NC8NsxbPzt0nOYT8m-41" style="edgeStyle=orthogonalEdgeStyle;rounded=0;orthogonalLoop=1;jettySize=auto;html=1;exitX=0;exitY=0.5;exitDx=0;exitDy=0;entryX=0;entryY=0.5;entryDx=0;entryDy=0;" edge="1" parent="WIyWlLk6GJQsqaUBKTNV-1" source="k_0NC8NsxbPzt0nOYT8m-7" target="k_0NC8NsxbPzt0nOYT8m-6">
          <mxGeometry relative="1" as="geometry">
            <mxPoint x="20" y="300" as="targetPoint" />
            <Array as="points">
              <mxPoint x="20" y="450" />
              <mxPoint x="20" y="300" />
            </Array>
          </mxGeometry>
        </mxCell>
        <mxCell id="k_0NC8NsxbPzt0nOYT8m-7" value="Vào chế độ điều chỉnh tốc độ" style="rounded=1;whiteSpace=wrap;html=1;" vertex="1" parent="WIyWlLk6GJQsqaUBKTNV-1">
          <mxGeometry x="79.95" y="420" width="120" height="60" as="geometry" />
        </mxCell>
        <mxCell id="k_0NC8NsxbPzt0nOYT8m-25" style="edgeStyle=orthogonalEdgeStyle;rounded=0;orthogonalLoop=1;jettySize=auto;html=1;exitX=0.5;exitY=1;exitDx=0;exitDy=0;entryX=0.5;entryY=0;entryDx=0;entryDy=0;" edge="1" parent="WIyWlLk6GJQsqaUBKTNV-1" source="k_0NC8NsxbPzt0nOYT8m-10" target="k_0NC8NsxbPzt0nOYT8m-24">
          <mxGeometry relative="1" as="geometry" />
        </mxCell>
        <mxCell id="k_0NC8NsxbPzt0nOYT8m-36" style="edgeStyle=orthogonalEdgeStyle;rounded=0;orthogonalLoop=1;jettySize=auto;html=1;entryX=0;entryY=0.5;entryDx=0;entryDy=0;" edge="1" parent="WIyWlLk6GJQsqaUBKTNV-1" source="k_0NC8NsxbPzt0nOYT8m-10" target="k_0NC8NsxbPzt0nOYT8m-19">
          <mxGeometry relative="1" as="geometry" />
        </mxCell>
        <mxCell id="k_0NC8NsxbPzt0nOYT8m-10" value="Nút 2" style="rhombus;whiteSpace=wrap;html=1;" vertex="1" parent="WIyWlLk6GJQsqaUBKTNV-1">
          <mxGeometry x="480" y="420" width="80" height="80" as="geometry" />
        </mxCell>
        <mxCell id="k_0NC8NsxbPzt0nOYT8m-39" style="edgeStyle=orthogonalEdgeStyle;rounded=0;orthogonalLoop=1;jettySize=auto;html=1;" edge="1" parent="WIyWlLk6GJQsqaUBKTNV-1" source="k_0NC8NsxbPzt0nOYT8m-19">
          <mxGeometry relative="1" as="geometry">
            <mxPoint x="520" y="340" as="targetPoint" />
            <Array as="points">
              <mxPoint x="710" y="340" />
              <mxPoint x="520" y="340" />
            </Array>
          </mxGeometry>
        </mxCell>
        <mxCell id="k_0NC8NsxbPzt0nOYT8m-19" value="Dừng và lưu trạng thái vào database" style="rounded=1;whiteSpace=wrap;html=1;" vertex="1" parent="WIyWlLk6GJQsqaUBKTNV-1">
          <mxGeometry x="650" y="430" width="120" height="60" as="geometry" />
        </mxCell>
        <mxCell id="k_0NC8NsxbPzt0nOYT8m-30" style="edgeStyle=orthogonalEdgeStyle;rounded=0;orthogonalLoop=1;jettySize=auto;html=1;exitX=0;exitY=0.5;exitDx=0;exitDy=0;entryX=1;entryY=0.5;entryDx=0;entryDy=0;" edge="1" parent="WIyWlLk6GJQsqaUBKTNV-1" source="k_0NC8NsxbPzt0nOYT8m-24" target="k_0NC8NsxbPzt0nOYT8m-26">
          <mxGeometry relative="1" as="geometry" />
        </mxCell>
        <mxCell id="k_0NC8NsxbPzt0nOYT8m-31" style="edgeStyle=orthogonalEdgeStyle;rounded=0;orthogonalLoop=1;jettySize=auto;html=1;entryX=0;entryY=0.5;entryDx=0;entryDy=0;" edge="1" parent="WIyWlLk6GJQsqaUBKTNV-1" source="k_0NC8NsxbPzt0nOYT8m-24" target="k_0NC8NsxbPzt0nOYT8m-27">
          <mxGeometry relative="1" as="geometry" />
        </mxCell>
        <mxCell id="k_0NC8NsxbPzt0nOYT8m-24" value="Bấm nút 3" style="rhombus;whiteSpace=wrap;html=1;" vertex="1" parent="WIyWlLk6GJQsqaUBKTNV-1">
          <mxGeometry x="310" y="550" width="80" height="80" as="geometry" />
        </mxCell>
        <mxCell id="k_0NC8NsxbPzt0nOYT8m-33" style="edgeStyle=orthogonalEdgeStyle;rounded=0;orthogonalLoop=1;jettySize=auto;html=1;exitX=0.5;exitY=1;exitDx=0;exitDy=0;entryX=0;entryY=0.5;entryDx=0;entryDy=0;" edge="1" parent="WIyWlLk6GJQsqaUBKTNV-1" source="k_0NC8NsxbPzt0nOYT8m-26" target="k_0NC8NsxbPzt0nOYT8m-32">
          <mxGeometry relative="1" as="geometry">
            <mxPoint x="183.33333333333348" y="824" as="targetPoint" />
          </mxGeometry>
        </mxCell>
        <mxCell id="k_0NC8NsxbPzt0nOYT8m-26" value="Xoay ngược chiều kim đồng hồ" style="rounded=1;whiteSpace=wrap;html=1;" vertex="1" parent="WIyWlLk6GJQsqaUBKTNV-1">
          <mxGeometry x="79.95" y="560" width="120" height="60" as="geometry" />
        </mxCell>
        <mxCell id="k_0NC8NsxbPzt0nOYT8m-27" value="Xoay thuận chiều kim đồng hồ" style="rounded=1;whiteSpace=wrap;html=1;" vertex="1" parent="WIyWlLk6GJQsqaUBKTNV-1">
          <mxGeometry x="520" y="560" width="120" height="60" as="geometry" />
        </mxCell>
        <mxCell id="k_0NC8NsxbPzt0nOYT8m-29" value="" style="edgeStyle=orthogonalEdgeStyle;rounded=0;orthogonalLoop=1;jettySize=auto;html=1;" edge="1" parent="WIyWlLk6GJQsqaUBKTNV-1" source="k_0NC8NsxbPzt0nOYT8m-28" target="k_0NC8NsxbPzt0nOYT8m-2">
          <mxGeometry relative="1" as="geometry" />
        </mxCell>
        <mxCell id="k_0NC8NsxbPzt0nOYT8m-28" value="Bắt đầu" style="ellipse;whiteSpace=wrap;html=1;" vertex="1" parent="WIyWlLk6GJQsqaUBKTNV-1">
          <mxGeometry x="320" y="20" width="120" height="80" as="geometry" />
        </mxCell>
        <mxCell id="k_0NC8NsxbPzt0nOYT8m-32" value="End" style="ellipse;whiteSpace=wrap;html=1;" vertex="1" parent="WIyWlLk6GJQsqaUBKTNV-1">
          <mxGeometry x="290" y="704" width="120" height="80" as="geometry" />
        </mxCell>
        <mxCell id="k_0NC8NsxbPzt0nOYT8m-34" style="edgeStyle=orthogonalEdgeStyle;rounded=0;orthogonalLoop=1;jettySize=auto;html=1;entryX=1.007;entryY=0.431;entryDx=0;entryDy=0;entryPerimeter=0;exitX=0.5;exitY=1;exitDx=0;exitDy=0;" edge="1" parent="WIyWlLk6GJQsqaUBKTNV-1" source="k_0NC8NsxbPzt0nOYT8m-27" target="k_0NC8NsxbPzt0nOYT8m-32">
          <mxGeometry relative="1" as="geometry">
            <mxPoint x="510" y="654" as="sourcePoint" />
            <mxPoint x="430" y="808" as="targetPoint" />
            <Array as="points">
              <mxPoint x="580" y="738" />
            </Array>
          </mxGeometry>
        </mxCell>
        <mxCell id="k_0NC8NsxbPzt0nOYT8m-44" style="edgeStyle=orthogonalEdgeStyle;rounded=0;orthogonalLoop=1;jettySize=auto;html=1;exitX=1;exitY=0.5;exitDx=0;exitDy=0;entryX=0;entryY=0.5;entryDx=0;entryDy=0;" edge="1" parent="WIyWlLk6GJQsqaUBKTNV-1" source="k_0NC8NsxbPzt0nOYT8m-42" target="k_0NC8NsxbPzt0nOYT8m-2">
          <mxGeometry relative="1" as="geometry" />
        </mxCell>
        <mxCell id="k_0NC8NsxbPzt0nOYT8m-42" value="&lt;div&gt;ESP32&lt;/div&gt;Xác nhận và Lưu tốc độ khởi động" style="rounded=1;whiteSpace=wrap;html=1;" vertex="1" parent="WIyWlLk6GJQsqaUBKTNV-1">
          <mxGeometry x="79.95" y="150" width="120" height="60" as="geometry" />
        </mxCell>
        <mxCell id="k_0NC8NsxbPzt0nOYT8m-45" value="On" style="text;html=1;align=center;verticalAlign=middle;resizable=0;points=[];autosize=1;strokeColor=none;fillColor=none;" vertex="1" parent="WIyWlLk6GJQsqaUBKTNV-1">
          <mxGeometry x="420" y="268" width="40" height="30" as="geometry" />
        </mxCell>
        <mxCell id="k_0NC8NsxbPzt0nOYT8m-46" value="Off" style="text;html=1;align=center;verticalAlign=middle;resizable=0;points=[];autosize=1;strokeColor=none;fillColor=none;" vertex="1" parent="WIyWlLk6GJQsqaUBKTNV-1">
          <mxGeometry x="290" y="268" width="40" height="30" as="geometry" />
        </mxCell>
        <mxCell id="k_0NC8NsxbPzt0nOYT8m-47" value="On" style="text;html=1;align=center;verticalAlign=middle;resizable=0;points=[];autosize=1;strokeColor=none;fillColor=none;" vertex="1" parent="WIyWlLk6GJQsqaUBKTNV-1">
          <mxGeometry x="139.95" y="340" width="40" height="30" as="geometry" />
        </mxCell>
        <mxCell id="k_0NC8NsxbPzt0nOYT8m-48" value="Off" style="text;html=1;align=center;verticalAlign=middle;resizable=0;points=[];autosize=1;strokeColor=none;fillColor=none;" vertex="1" parent="WIyWlLk6GJQsqaUBKTNV-1">
          <mxGeometry x="139.95" y="230" width="40" height="30" as="geometry" />
        </mxCell>
        <mxCell id="k_0NC8NsxbPzt0nOYT8m-49" value="On" style="text;html=1;align=center;verticalAlign=middle;resizable=0;points=[];autosize=1;strokeColor=none;fillColor=none;" vertex="1" parent="WIyWlLk6GJQsqaUBKTNV-1">
          <mxGeometry x="570" y="428" width="40" height="30" as="geometry" />
        </mxCell>
        <mxCell id="k_0NC8NsxbPzt0nOYT8m-50" value="Off" style="text;html=1;align=center;verticalAlign=middle;resizable=0;points=[];autosize=1;strokeColor=none;fillColor=none;" vertex="1" parent="WIyWlLk6GJQsqaUBKTNV-1">
          <mxGeometry x="390" y="488" width="40" height="30" as="geometry" />
        </mxCell>
        <mxCell id="k_0NC8NsxbPzt0nOYT8m-51" value="Off" style="text;html=1;align=center;verticalAlign=middle;resizable=0;points=[];autosize=1;strokeColor=none;fillColor=none;" vertex="1" parent="WIyWlLk6GJQsqaUBKTNV-1">
          <mxGeometry x="394" y="550" width="40" height="30" as="geometry" />
        </mxCell>
        <mxCell id="k_0NC8NsxbPzt0nOYT8m-52" value="On" style="text;html=1;align=center;verticalAlign=middle;resizable=0;points=[];autosize=1;strokeColor=none;fillColor=none;" vertex="1" parent="WIyWlLk6GJQsqaUBKTNV-1">
          <mxGeometry x="270" y="550" width="40" height="30" as="geometry" />
        </mxCell>
      </root>
    </mxGraphModel>
  </diagram>
</mxfile>
